<?xml version="1.0" encoding="UTF-8"?>
<svg id="Calque_1" xmlns="http://www.w3.org/2000/svg" version="1.1" viewBox="0 0 111.6 86.84">
  <!-- Generator: Adobe Illustrator 30.5.1, SVG Export Plug-In . SVG Version: 2.1.4 Build 3)  -->
  <defs>
    <style>
      .st0 {
        fill: none;
        stroke: #895737;
        stroke-miterlimit: 10;
        stroke-width: .75px;
      }

      .st1 {
        fill: #895737;
        font-family: CanelaTrial-Light, 'Canela Trial';
        font-size: 4.64px;
        font-weight: 300;
        letter-spacing: 3em;
      }
    </style>
  </defs>
  <text class="st1" transform="translate(31.15 85.79)"><tspan x="0" y="0">HOME</tspan></text>
  <g>
    <path class="st0" d="M32.79,47.02c1.03,1.23,1.82,2.68,2.68,4.06.14.22.28.44.42.66"/>
    <path class="st0" d="M32.79,41.75c.37.61.72,1.23,1.07,1.85,1.32,2.35,2.66,4.76,4.74,6.48.79.65,1.65,1.18,2.55,1.65"/>
    <path class="st0" d="M32.79,38.52c.6.28,1.18.57,1.75.89,3.63,2.09,6.32,5.45,8.92,8.75.94,1.19,1.88,2.38,2.82,3.57"/>
    <path class="st0" d="M32.79,33.79c1.03,1.62,1.88,3.35,3.19,4.72,2.3,2.39,5.66,3.35,8.53,5,3.45,1.98,6.12,4.9,8.34,8.22"/>
    <path class="st0" d="M32.79,30.31c.62.5,1.24,1.01,1.86,1.51,1.87,1.52,3.76,3.05,5.92,4.11,1.17.58,2.42,1.01,3.57,1.64,2.72,1.51,4.69,4.03,6.59,6.49,1.97,2.56,3.95,5.12,5.93,7.68"/>
    <path class="st0" d="M32.79,24.89c2.36,2.09,4.85,4.05,7.44,5.86,4.15,2.9,8.59,5.44,12.26,8.93,3.61,3.44,6.32,7.65,8.72,12.05"/>
    <path class="st0" d="M32.79,21.98c3.22.59,6.25,2.2,8.52,4.57,1.85,1.92,3.21,4.32,5.33,5.95,2.3,1.76,5.22,2.42,7.82,3.7,4.18,2.06,7.43,5.7,9.77,9.74,1.08,1.86,1.98,3.81,2.8,5.8"/>
    <path class="st0" d="M32.79,17.23s.07.02.11.03c3.08.84,5.8,2.62,8.46,4.37,3.89,2.56,7.81,5.15,11.16,8.39,2.86,2.77,5.72,5.54,8.58,8.31,2.88,2.79,5.78,5.6,8.07,8.88.98,1.41,1.86,2.93,2.54,4.52"/>
    <path class="st0" d="M32.79,13.31c1.21.4,2.39.92,3.54,1.45,2.4,1.1,4.81,2.19,7.22,3.29,2,.91,4.02,1.84,5.67,3.28,2.83,2.47,5.66,4.95,8.49,7.43,3.5,3.06,7,6.13,10.33,9.37,1.37,1.33,2.71,2.68,3.85,4.21,2.08,2.8,3.39,6.03,4.37,9.39"/>
    <path class="st0" d="M32.79,10.94c1.49-.09,2.97-.05,4.41.36,1.69.47,3.2,1.42,4.69,2.36,6.73,4.24,13.45,8.48,20.18,12.72,2.14,1.35,4.13,2.95,5.91,4.77s3.34,3.82,4.89,5.83c1.54,1.98,3.08,3.98,4.17,6.24,1.18,2.45,1.78,5.14,2.93,7.6.14.31.3.62.47.92"/>
    <path class="st0" d="M32.79,5.52c5.1,2.27,9.91,5.15,14.69,8.03,4.3,2.59,8.6,5.18,12.9,7.77,2.69,1.62,5.39,3.25,7.79,5.27,2.69,2.26,4.96,4.98,7.21,7.68,2.95,3.55,5.91,7.09,8.87,10.64"/>
    <path class="st0" d="M32.79,1.51c1.82,1.42,3.9,2.51,5.95,3.56,2.52,1.3,5.04,2.6,7.56,3.89,3.8,1.96,7.63,3.87,11.48,5.73,2,.96,4.01,1.92,5.85,3.2,2.79,1.94,5.09,4.57,7.36,7.17,4.42,5.07,8.84,10.14,13.27,15.21"/>
    <path class="st0" d="M40.57.27c3.13,4.06,7.32,7.34,12.07,9.39,3.02,1.31,6.26,2.12,9.17,3.63,5.16,2.67,8.92,7.27,13.05,11.31,2.73,2.69,5.88,5.25,9.39,6.71"/>
    <path class="st0" d="M50.51.27c.94.91,1.97,1.72,3.06,2.43,2.37,1.55,5.03,2.6,7.53,3.92,9.45,4.95,16.52,13.36,23.16,21.81"/>
  </g>
  <g>
    <path d="M2.22,75.49H0v-.04c.76-.76.98-1.33,1.46-2.6l4.02-10.85h.44l4.08,11.03c.55,1.46.78,1.88,1.4,2.42v.04h-2.89v-.04c.27-.42.38-1.27-.07-2.49l-.91-2.49H2.77l-.75,2.04c-.6,1.6-.18,2.48.2,2.95v.04ZM5.17,63.97l-2.26,6.14h4.48l-2.22-6.14Z"/>
    <path d="M19.64,75.49v-.04c.58-.93.73-1.46.73-2.69v-7.87c0-1.24-.15-1.77-.73-2.69v-.04h2.95v.04c-.6.93-.73,1.44-.73,2.69v10.32l3.3-.13c1.35-.07,2.42-1.26,3.42-2.91l.15.05-.82,3.26h-8.27Z"/>
    <path d="M37.08,75.46c.6-.93.73-1.46.73-2.69v-7.87c0-1.24-.13-1.77-.73-2.69v-.04h2.95v.04c-.6.93-.73,1.44-.73,2.69v7.87c0,1.26.13,1.77.73,2.69v.04h-2.95v-.04Z"/>
    <path d="M50.48,75.49h-2.22v-.04c.76-.76.98-1.33,1.46-2.6l4.02-10.85h.44l4.08,11.03c.55,1.46.78,1.88,1.4,2.42v.04h-2.89v-.04c.27-.42.38-1.27-.07-2.49l-.91-2.49h-4.75l-.75,2.04c-.6,1.6-.18,2.48.2,2.95v.04ZM53.43,63.97l-2.26,6.14h4.48l-2.22-6.14Z"/>
    <path d="M74.01,75.77c-4.31,0-7.03-3.04-7.03-6.94s2.79-6.94,7.36-6.94c2.09,0,3.71.53,4.66.87l.36,2.77-.15.05c-1.33-2.33-2.73-3.33-5.04-3.33-3.73,0-5.48,2.89-5.48,6.59s1.51,6.55,5.32,6.55c2.37,0,4.06-.98,4.06-2.89,0-1.6-.18-2.24-.84-3.02v-.04h2.97v.04c-.6.84-.73,1.42-.73,2.86v1.49c-.87.6-2.51,1.93-5.46,1.93Z"/>
    <path d="M89.37,71.16v-6.23c0-1.27-.13-1.78-.73-2.73v-.04h2.95v.04c-.49.78-.73,1.46-.73,2.73v6.17c0,3.13,1.64,4.24,3.81,4.24,2.93,0,3.86-2.09,3.86-4.41v-5.73c0-1.37-.24-1.93-1.31-3v-.04h2.89l.04.04c-.98,1.07-1.22,1.64-1.22,3v5.72c0,2.6-1.13,4.84-4.59,4.84-2.69,0-4.97-1.33-4.97-4.61Z"/>
    <path d="M108.65,75.46c.6-.93.73-1.46.73-2.69v-7.87c0-1.24-.13-1.77-.73-2.69v-.04h2.95v.04c-.6.93-.73,1.44-.73,2.69v7.87c0,1.26.13,1.77.73,2.69v.04h-2.95v-.04Z"/>
  </g>
</svg>