<?xml version="1.0" encoding="UTF-8"?>
<svg id="Calque_1" data-name="Calque 1" xmlns="http://www.w3.org/2000/svg" viewBox="0 0 841.89 595.28">
  <defs>
    <style>
      .cls-1 {
        fill: none;
        stroke: #895737;
        stroke-miterlimit: 10;
        stroke-width: 4px;
      }
    </style>
  </defs>
  <path class="cls-1" d="M199.51,478.4c8.83,10.63,15.68,23.1,23.06,34.92,1.19,1.89,2.37,3.78,3.65,5.67"/>
  <path class="cls-1" d="M199.51,433.07c3.21,5.27,6.24,10.63,9.22,15.94,11.33,20.2,22.93,40.98,40.76,55.74,6.76,5.62,14.19,10.15,21.96,14.23"/>
  <path class="cls-1" d="M199.51,405.27c5.14,2.37,10.19,4.88,15.07,7.69,31.27,17.96,54.42,46.95,76.78,75.28,8.08,10.23,16.21,20.51,24.29,30.75"/>
  <path class="cls-1" d="M199.51,364.55c8.83,13.92,16.16,28.81,27.5,40.63,19.76,20.56,48.71,28.86,73.44,43.04,29.74,17.09,52.66,42.16,71.77,70.76"/>
  <path class="cls-1" d="M199.51,334.55c5.31,4.3,10.67,8.65,15.99,12.96,16.08,13.09,32.33,26.27,50.95,35.36,10.1,4.96,20.86,8.65,30.7,14.1,23.41,12.96,40.41,34.7,56.75,55.87,17,22,34.04,44.1,51.04,66.15"/>
  <path class="cls-1" d="M199.51,287.95c20.34,18.01,41.77,34.87,64.04,50.47,35.71,24.95,73.96,46.82,105.54,76.86,31.1,29.6,54.38,65.84,75.02,103.7"/>
  <path class="cls-1" d="M199.51,262.87c27.71,5.09,53.76,18.97,73.31,39.31,15.9,16.56,27.67,37.2,45.9,51.21,19.76,15.15,44.98,20.86,67.33,31.84,36.02,17.74,63.95,49.1,84.11,83.85,9.31,15.99,17.09,32.77,24.11,49.9"/>
  <path class="cls-1" d="M199.51,221.94c.31.04.61.13.92.22,26.48,7.25,49.9,22.53,72.82,37.64,33.51,22.05,67.24,44.32,96.06,72.25,24.64,23.85,49.24,47.7,73.83,71.55,24.77,23.98,49.72,48.18,69.44,76.47,8.48,12.17,15.99,25.26,21.87,38.91"/>
  <path class="cls-1" d="M199.51,188.25c10.41,3.43,20.56,7.95,30.48,12.47,20.69,9.44,41.42,18.84,62.15,28.29,17.17,7.82,34.61,15.81,48.8,28.24,24.38,21.3,48.75,42.65,73.09,63.99,30.13,26.35,60.26,52.75,88.94,80.64,11.77,11.42,23.32,23.1,33.12,36.28,17.92,24.07,29.16,51.87,37.6,80.82"/>
  <path class="cls-1" d="M199.51,167.83c12.83-.79,25.61-.4,37.95,3.07,14.58,4.08,27.58,12.25,40.41,20.29,57.89,36.5,115.78,73,173.67,109.5,18.45,11.64,35.58,25.43,50.86,41.02,15.28,15.59,28.72,32.9,42.08,50.16,13.22,17.04,26.53,34.26,35.88,53.72,10.15,21.08,15.33,44.23,25.26,65.44,1.23,2.68,2.59,5.31,4.04,7.95"/>
  <path class="cls-1" d="M199.51,121.14c43.92,19.5,85.3,44.36,126.45,69.13,37.03,22.31,74.05,44.58,111.08,66.89,23.15,13.92,46.38,27.93,67.07,45.33,23.15,19.46,42.69,42.87,62.06,66.1,25.43,30.57,50.91,61.05,76.34,91.58"/>
  <path class="cls-1" d="M199.51,86.66c15.68,12.25,33.6,21.57,51.26,30.66,21.7,11.16,43.39,22.36,65.09,33.51,32.72,16.87,65.66,33.34,98.78,49.32,17.22,8.3,34.52,16.56,50.33,27.54,24.03,16.73,43.79,39.35,63.34,61.71,38.04,43.61,76.12,87.27,114.2,130.89"/>
  <path class="cls-1" d="M266.45,75.99c26.92,34.92,62.98,63.2,103.92,80.82,26,11.24,53.85,18.27,78.97,31.27,44.4,22.97,76.82,62.54,112.31,97.33,23.54,23.15,50.6,45.15,80.86,57.8"/>
  <path class="cls-1" d="M352.01,75.99c8.13,7.82,16.95,14.85,26.35,20.95,20.42,13.35,43.26,22.4,64.83,33.73,81.39,42.6,142.17,115.03,199.32,187.77"/>
</svg>